<svg width="64" height="64" viewBox="0 0 64 64" fill="none" xmlns="http://www.w3.org/2000/svg">
<path d="M63.335 49.22C61.055 49.8 59.645 49.245 58.38 47.345C55.54 43.09 52.405 39.03 49.38 34.895C48.99 34.36 48.585 33.835 48.08 33.17C44.5 38 40.925 42.6 37.57 47.385C36.37 49.095 35.11 49.84 32.87 49.235L46.33 31.17L33.8 14.855C35.955 14.435 37.445 14.65 38.765 16.58C41.68 20.84 44.895 24.895 48.1 29.185C51.325 24.91 54.5 20.85 57.5 16.63C58.705 14.92 60 14.27 62.165 14.9C60.525 17.075 58.92 19.215 57.305 21.34C55.125 24.205 52.985 27.105 50.725 29.91C49.92 30.91 50.05 31.56 50.77 32.505C54.95 38 59.08 43.55 63.335 49.22ZM0.664994 30.87C1.02499 29.065 1.26499 27.225 1.76499 25.455C4.76499 14.74 17.065 10.285 25.515 16.925C30.465 20.82 31.695 26.31 31.45 32.5H3.54999C3.12999 43.605 11.125 50.31 21.315 46.89C24.89 45.69 26.995 42.89 28.05 39.39C28.585 37.635 29.47 37.36 31.12 37.86C30.275 42.24 28.36 45.9 24.36 48.19C18.36 51.62 9.79499 50.51 5.28999 45.745C2.62999 42.945 1.49999 39.46 0.999994 35.695C0.924994 35.095 0.769994 34.505 0.649994 33.91C0.659994 32.8966 0.664994 31.8833 0.664994 30.87ZM3.59999 30.125H28.815C28.65 22.095 23.65 16.39 16.815 16.34C9.31499 16.28 3.92499 21.85 3.59999 30.125Z" fill="white"/>
</svg>
