<svg width="64" height="64" viewBox="0 0 64 64" fill="none" xmlns="http://www.w3.org/2000/svg">
<g clip-path="url(#clip0_4_21)">
<path d="M0.70401 0.703979H63.296V63.2965H0.70401V0.703979Z" fill="#F0DB4F"/>
<path d="M58.1735 48.3681C57.715 45.5126 55.853 43.1141 50.3375 40.8776C48.4215 39.9971 46.2855 39.3666 45.649 37.9146C45.423 37.0696 45.393 36.5936 45.536 36.0821C45.9465 34.4221 47.928 33.9046 49.4985 34.3806C50.51 34.7196 51.4675 35.4991 52.045 36.7426C54.746 34.9936 54.7405 35.0051 56.6265 33.8031C55.936 32.7326 55.5675 32.2386 55.1155 31.7806C53.491 29.9661 51.2775 29.0316 47.7375 29.1031L45.8935 29.3416C44.1265 29.7881 42.4425 30.7156 41.455 31.9591C38.492 35.3211 39.337 41.2051 42.9425 43.6266C46.4945 46.2926 51.7125 46.8991 52.379 49.3921C53.0275 52.4441 50.136 53.4321 47.262 53.0811C45.144 52.6406 43.966 51.5641 42.6925 49.6066C40.3485 50.9631 40.3485 50.9631 37.9385 52.3491C38.51 53.5986 39.1105 54.1641 40.0685 55.2466C44.6025 59.8456 55.9485 59.6196 57.9835 52.6586C58.066 52.4196 58.614 50.8256 58.1735 48.3681ZM34.731 29.4716H28.8765L28.8525 44.6076C28.8525 47.8266 29.019 50.7776 28.4955 51.6821C27.639 53.4611 25.4195 53.2406 24.408 52.8956C23.3785 52.3896 22.855 51.6701 22.2485 50.6531C22.082 50.3611 21.957 50.1351 21.915 50.1176L17.155 53.0326C17.9465 54.6571 19.1125 56.0671 20.606 56.9831C22.837 58.3221 25.8355 58.7326 28.9715 58.0126C31.0125 57.4181 32.7735 56.1866 33.6955 54.3121C35.0285 51.8546 34.7425 48.8801 34.7305 45.5901C34.7605 40.2226 34.731 34.8561 34.731 29.4716Z" fill="#323330"/>
</g>
<defs>
<clipPath id="clip0_4_21">
<rect width="64" height="64" fill="white"/>
</clipPath>
</defs>
</svg>
