<svg width="64" height="64" viewBox="0 0 64 64" fill="none" xmlns="http://www.w3.org/2000/svg">
<g clip-path="url(#clip0_9_41)">
<mask id="mask0_9_41" style="mask-type:alpha" maskUnits="userSpaceOnUse" x="-1" y="0" width="65" height="64">
<path fill-rule="evenodd" clip-rule="evenodd" d="M45.3835 63.563C45.8928 63.7615 46.4375 63.8532 46.9837 63.8322C47.5299 63.8112 48.066 63.678 48.5585 63.441L61.735 57.1004C62.4136 56.7738 62.9861 56.2622 63.3868 55.6245C63.7875 54.9869 64.0001 54.2491 64 53.4959V10.5044C64.0002 9.75126 63.7877 9.01333 63.387 8.37557C62.9863 7.73781 62.4136 7.22614 61.735 6.89945L48.5585 0.559949C47.8139 0.201702 46.9764 0.0837502 46.1619 0.222418C45.3474 0.361086 44.5961 0.749516 44.012 1.33395L18.787 24.3469L7.8 16.0064C7.30437 15.6301 6.69264 15.4392 6.07095 15.4668C5.44926 15.4944 4.85685 15.7387 4.3965 16.1574L0.872496 19.3629C0.59787 19.6127 0.378403 19.9171 0.228133 20.2565C0.0778634 20.596 0.000100039 20.9631 -0.000182334 21.3343C-0.000464706 21.7055 0.0767401 22.0727 0.226493 22.4124C0.376246 22.7521 0.595251 23.0568 0.869496 23.3069L10.398 31.9999L0.869996 40.6935C0.5959 40.9437 0.377027 41.2484 0.227367 41.588C0.0777067 41.9276 0.000552027 42.2947 0.00083437 42.6659C0.00111671 43.037 0.0788299 43.404 0.229007 43.7434C0.379183 44.0828 0.59852 44.3871 0.872996 44.637L4.397 47.8424C4.85724 48.2613 5.44964 48.5058 6.07136 48.5335C6.69307 48.5612 7.30485 48.3703 7.8005 47.9939L18.7875 39.6539L44.0125 62.6665C44.4025 63.0572 44.8691 63.3625 45.3835 63.563ZM48.0095 17.4714L28.87 31.9999L48.01 46.5289L48.0095 17.4714Z" fill="white"/>
</mask>
<g mask="url(#mask0_9_41)">
<path d="M61.7355 6.90992L48.5485 0.55992C47.8037 0.201435 46.9658 0.0833554 46.1509 0.222024C45.336 0.360693 44.5843 0.749253 44 1.33392L0.830995 40.6934C0.556694 40.9435 0.337636 41.2482 0.187843 41.5878C0.0380506 41.9274 -0.0391763 42.2946 -0.0388939 42.6658C-0.0386115 43.037 0.0391739 43.4041 0.189483 43.7435C0.339792 44.0829 0.559314 44.3872 0.833995 44.6369L4.36 47.8424C4.82065 48.2613 5.41337 48.5057 6.03537 48.5334C6.65738 48.5611 7.26946 48.3702 7.7655 47.9939L59.751 8.55642C61.495 7.23342 64 8.47742 64 10.6664V10.5134C64 9.76047 63.7874 9.02281 63.3868 8.38526C62.9862 7.74771 62.4139 7.23666 61.7355 6.90992Z" fill="#0065A9"/>
<g filter="url(#filter0_d_9_41)">
<path d="M61.7355 57.0904L48.5485 63.4394C47.8038 63.798 46.966 63.9162 46.1511 63.7777C45.3362 63.6393 44.5845 63.2509 44 62.6664L0.830995 23.3064C0.556694 23.0563 0.337636 22.7516 0.187843 22.412C0.0380506 22.0724 -0.0391763 21.7052 -0.0388939 21.334C-0.0386115 20.9628 0.0391739 20.5957 0.189483 20.2563C0.339792 19.9169 0.559314 19.6126 0.833995 19.3629L4.36 16.1574C4.82065 15.7385 5.41337 15.4941 6.03537 15.4664C6.65738 15.4387 7.26946 15.6296 7.7655 16.0059L59.751 55.4429C61.495 56.7664 64 55.5224 64 53.3334V53.4864C64 54.2393 63.7874 54.977 63.3868 55.6145C62.9862 56.2521 62.4139 56.7636 61.7355 57.0904Z" fill="#007ACC"/>
</g>
<g filter="url(#filter1_d_9_41)">
<path d="M48.549 63.4409C47.804 63.7991 46.9661 63.917 46.1511 63.7783C45.3362 63.6395 44.5845 63.251 44 62.6664C45.476 64.1424 48 63.0969 48 61.0094V2.98989C48 0.902392 45.476 -0.143108 44 1.33339C44.5845 0.748793 45.3362 0.360251 46.1511 0.221502C46.9661 0.0827519 47.804 0.20065 48.549 0.558892L61.7335 6.89989C62.4124 7.22637 62.9854 7.73795 63.3863 8.37572C63.7873 9.0135 64 9.75154 64 10.5049V53.4959C64 54.2492 63.7873 54.9873 63.3863 55.6251C62.9854 56.2628 62.4124 56.7744 61.7335 57.1009L48.549 63.4409Z" fill="#1F9CF0"/>
</g>
<path style="mix-blend-mode:overlay" opacity="0.25" fill-rule="evenodd" clip-rule="evenodd" d="M45.345 63.563C45.8542 63.7614 46.3988 63.853 46.9449 63.8321C47.4911 63.8111 48.027 63.6779 48.5195 63.441L61.696 57.1004C62.3746 56.7738 62.9473 56.2621 63.348 55.6243C63.7487 54.9866 63.9612 54.2486 63.961 53.4954V10.5044C63.9612 9.75126 63.7487 9.01333 63.348 8.37557C62.9473 7.73781 62.3746 7.22614 61.696 6.89945L48.5195 0.559949C47.7749 0.201702 46.9374 0.0837502 46.1229 0.222418C45.3084 0.361086 44.5571 0.749516 43.973 1.33395L18.748 24.3469L7.761 16.0069C7.26537 15.6306 6.65364 15.4397 6.03195 15.4673C5.41027 15.4949 4.81785 15.7392 4.3575 16.158L0.833496 19.3634C0.558939 19.6133 0.339533 19.9176 0.189307 20.2571C0.0390819 20.5965 -0.0386573 20.9636 -0.0389397 21.3348C-0.039222 21.706 0.0379587 22.0732 0.187668 22.4128C0.337377 22.7525 0.556319 23.0572 0.830496 23.3074L10.359 31.9999L0.830996 40.693C0.556751 40.9431 0.337747 41.2478 0.187994 41.5875C0.0382404 41.9272 -0.0389644 42.2944 -0.0386821 42.6656C-0.0383997 43.0368 0.0393636 43.4039 0.189633 43.7434C0.339903 44.0828 0.559371 44.3872 0.833996 44.637L4.358 47.8424C4.81829 48.2613 5.41067 48.5057 6.03236 48.5334C6.65405 48.561 7.26581 48.3702 7.7615 47.9939L18.749 39.6535L43.974 62.6665C44.3639 63.0571 44.8308 63.3624 45.345 63.563ZM47.971 17.4709L28.831 31.9999L47.971 46.5285V17.4709Z" fill="url(#paint0_linear_9_41)"/>
</g>
</g>
<defs>
<filter id="filter0_d_9_41" x="-8.37223" y="7.13041" width="80.7056" height="65.037" filterUnits="userSpaceOnUse" color-interpolation-filters="sRGB">
<feFlood flood-opacity="0" result="BackgroundImageFix"/>
<feColorMatrix in="SourceAlpha" type="matrix" values="0 0 0 0 0 0 0 0 0 0 0 0 0 0 0 0 0 0 127 0" result="hardAlpha"/>
<feOffset/>
<feGaussianBlur stdDeviation="4.16667"/>
<feColorMatrix type="matrix" values="0 0 0 0 0 0 0 0 0 0 0 0 0 0 0 0 0 0 0.25 0"/>
<feBlend mode="overlay" in2="BackgroundImageFix" result="effect1_dropShadow_9_41"/>
<feBlend mode="normal" in="SourceGraphic" in2="effect1_dropShadow_9_41" result="shape"/>
</filter>
<filter id="filter1_d_9_41" x="35.6667" y="-8.16842" width="36.6667" height="80.3366" filterUnits="userSpaceOnUse" color-interpolation-filters="sRGB">
<feFlood flood-opacity="0" result="BackgroundImageFix"/>
<feColorMatrix in="SourceAlpha" type="matrix" values="0 0 0 0 0 0 0 0 0 0 0 0 0 0 0 0 0 0 127 0" result="hardAlpha"/>
<feOffset/>
<feGaussianBlur stdDeviation="4.16667"/>
<feColorMatrix type="matrix" values="0 0 0 0 0 0 0 0 0 0 0 0 0 0 0 0 0 0 0.25 0"/>
<feBlend mode="overlay" in2="BackgroundImageFix" result="effect1_dropShadow_9_41"/>
<feBlend mode="normal" in="SourceGraphic" in2="effect1_dropShadow_9_41" result="shape"/>
</filter>
<linearGradient id="paint0_linear_9_41" x1="31.9611" y1="0.1649" x2="31.9611" y2="63.8349" gradientUnits="userSpaceOnUse">
<stop stop-color="white"/>
<stop offset="1" stop-color="white" stop-opacity="0"/>
</linearGradient>
<clipPath id="clip0_9_41">
<rect width="64" height="64" fill="white"/>
</clipPath>
</defs>
</svg>
